<svg aria-hidden="true" style="position: absolute; width: 0; height: 0; overflow: hidden;" version="1.1" xmlns="http://www.w3.org/2000/svg" xmlns:xlink="http://www.w3.org/1999/xlink">
<defs>
<symbol id="icon-edit" viewBox="0 0 32 32">
<path stroke-linejoin="round" stroke-linecap="round" stroke-miterlimit="4" stroke-width="2.6667" d="M14.667 6.667h-6.667c-1.473 0-2.667 1.194-2.667 2.667v14.667c0 1.473 1.194 2.667 2.667 2.667h14.667c1.473 0 2.667-1.194 2.667-2.667v-6.667M23.448 4.781c1.041-1.041 2.73-1.041 3.771 0s1.041 2.73 0 3.771l-11.448 11.448h-3.771v-3.771l11.448-11.448z"></path>
</symbol>
<symbol id="icon-plus" viewBox="0 0 32 32">
<path fill="#000000" stroke-linejoin="round" stroke-linecap="round" stroke-miterlimit="4" stroke-width="2.6667" d="M16 8v8M16 16v8M16 16h8M16 16h-8"></path>
</symbol>
<symbol id="icon-trash" viewBox="0 0 32 32">
<path stroke-linejoin="round" stroke-linecap="round" stroke-miterlimit="4" stroke-width="2.6667" d="M25.333 9.333l-1.156 16.19c-0.1 1.395-1.261 2.477-2.66 2.477h-11.034c-1.399 0-2.56-1.081-2.66-2.477l-1.156-16.19M13.333 14.667v8M18.667 14.667v8M20 9.333v-4c0-0.736-0.597-1.333-1.333-1.333h-5.333c-0.736 0-1.333 0.597-1.333 1.333v4M5.333 9.333h21.333"></path>
</symbol>
</defs>
</svg>
